<svg xmlns="http://www.w3.org/2000/svg" viewBox="0 0 760 460" font-family="system-ui, Segoe UI, Arial, sans-serif" font-size="13">
<defs><marker id="a" viewBox="0 0 10 10" refX="9" refY="5" markerWidth="7" markerHeight="7" orient="auto"><path d="M0 0L10 5L0 10z" fill="#1d1b18"/></marker></defs>
<rect width="760" height="460" rx="10" fill="#fdfbf7" stroke="#d9d3c5"/>
<text x="380" y="28" text-anchor="middle" font-size="16" font-weight="600" fill="#1d1b18">Curva de apertura obtenida en la simulación</text>
<rect x="70" y="95.6" width="650" height="68.0" fill="#d6ead3" opacity=".9"/>
<text x="78" y="133.6" font-size="12" font-weight="600" fill="#6b665d">Nivel 1</text>
<rect x="70" y="184.0" width="650" height="32.4" fill="#fbf3bf" opacity=".9"/>
<text x="78" y="204.2" font-size="12" font-weight="600" fill="#6b665d">Nivel 2</text>
<rect x="70" y="264.0" width="650" height="47.5" fill="#fbdcb0" opacity=".9"/>
<text x="78" y="291.8" font-size="12" font-weight="600" fill="#6b665d">Nivel 3</text>
<rect x="70" y="320.0" width="650" height="32.4" fill="#f4bcbc" opacity=".9"/>
<text x="78" y="340.2" font-size="12" font-weight="600" fill="#6b665d">Nivel 4</text>
<rect x="94.1" y="60" width="63.7" height="340" fill="#3d5a80" opacity=".18"/>
<line x1="94.1" y1="60" x2="94.1" y2="400" stroke="#3d5a80" stroke-width="1.4" stroke-dasharray="6 4"/>
<line x1="157.8" y1="60" x2="157.8" y2="400" stroke="#3d5a80" stroke-width="1.4" stroke-dasharray="6 4"/>
<text x="125.9" y="52" text-anchor="middle" font-size="11.5" font-weight="600" fill="#3d5a80">zona de interés</text>
<line x1="70" y1="400" x2="720" y2="400" stroke="#1d1b18" stroke-width="1.4"/>
<line x1="70" y1="60" x2="70" y2="400" stroke="#1d1b18" stroke-width="1.4"/>
<path d="M 116.6 61.4 L 133.7 95.8 L 149.9 178.5 L 176.7 251.1 L 227.9 281.8 L 336.2 317.7 L 436.7 341.5 L 578.4 367.3 L 678.9 385.0" fill="none" stroke="#1d1b18" stroke-width="2.8"/>
<circle cx="116.6" cy="61.4" r="4" fill="#1d1b18"/>
<circle cx="133.7" cy="95.8" r="4" fill="#1d1b18"/>
<circle cx="149.9" cy="178.5" r="4" fill="#1d1b18"/>
<circle cx="176.7" cy="251.1" r="4" fill="#1d1b18"/>
<circle cx="227.9" cy="281.8" r="4" fill="#1d1b18"/>
<circle cx="336.2" cy="317.7" r="4" fill="#1d1b18"/>
<circle cx="436.7" cy="341.5" r="4" fill="#1d1b18"/>
<circle cx="578.4" cy="367.3" r="4" fill="#1d1b18"/>
<circle cx="678.9" cy="385.0" r="4" fill="#1d1b18"/>
<text x="395" y="428" text-anchor="middle" font-size="13" fill="#1d1b18">Corriente →</text>
<text x="22" y="230" font-size="13" fill="#1d1b18" transform="rotate(-90 22 230)" text-anchor="middle">Tiempo en abrir →</text>
<text x="380" y="442" text-anchor="middle" font-size="11.5" fill="#6b665d">Los niveles son las ventanas de tiempo que debe atravesar la curva. Ejes en escala logarítmica, sin valores.</text>
</svg>