<svg xmlns="http://www.w3.org/2000/svg" viewBox="0 0 760 420" font-family="system-ui, Segoe UI, Arial, sans-serif" font-size="13">
<defs><marker id="a" viewBox="0 0 10 10" refX="9" refY="5" markerWidth="7" markerHeight="7" orient="auto"><path d="M0 0L10 5L0 10z" fill="#1d1b18"/></marker><marker id="b" viewBox="0 0 10 10" refX="9" refY="5" markerWidth="7" markerHeight="7" orient="auto"><path d="M0 0L10 5L0 10z" fill="#b4441c"/></marker><marker id="c" viewBox="0 0 10 10" refX="9" refY="5" markerWidth="7" markerHeight="7" orient="auto"><path d="M0 0L10 5L0 10z" fill="#3d5a80"/></marker></defs>
<rect width="760" height="420" rx="10" fill="#fdfbf7" stroke="#d9d3c5"/>
<text x="380" y="28" text-anchor="middle" font-size="16" font-weight="600" fill="#1d1b18">Inyección de tercer armónico: más fundamental con el mismo bus</text>
<line x1="70" y1="70.0" x2="730" y2="70.0" stroke="#6b665d" stroke-width="1.4" stroke-dasharray="7 4"/>
<line x1="70" y1="310.0" x2="730" y2="310.0" stroke="#6b665d" stroke-width="1.4" stroke-dasharray="7 4"/>
<text x="76" y="64.0" font-size="11.5" fill="#6b665d">+Vdc/2 (límite del bus)</text>
<text x="724" y="304.0" font-size="11.5" fill="#6b665d" text-anchor="end">−Vdc/2</text>
<line x1="70" y1="190" x2="730" y2="190" stroke="#d9d3c5" stroke-width="1"/>
<path d="M 70.0 190.0 L 71.7 187.8 L 73.3 185.6 L 75.0 183.5 L 76.6 181.3 L 78.2 179.1 L 79.9 177.0 L 81.5 174.8 L 83.2 172.6 L 84.8 170.5 L 86.5 168.3 L 88.2 166.2 L 89.8 164.0 L 91.5 161.9 L 93.1 159.8 L 94.8 157.7 L 96.4 155.5 L 98.1 153.4 L 99.7 151.3 L 101.3 149.3 L 103.0 147.2 L 104.7 145.1 L 106.3 143.1 L 107.9 141.0 L 109.6 139.0 L 111.2 137.0 L 112.9 135.0 L 114.6 133.0 L 116.2 131.0 L 117.9 129.0 L 119.5 127.1 L 121.1 125.2 L 122.8 123.2 L 124.5 121.3 L 126.1 119.5 L 127.8 117.6 L 129.4 115.8 L 131.1 113.9 L 132.7 112.1 L 134.3 110.3 L 136.0 108.6 L 137.6 106.8 L 139.3 105.1 L 140.9 103.4 L 142.6 101.7 L 144.2 100.0 L 145.9 98.4 L 147.6 96.7 L 149.2 95.1 L 150.8 93.6 L 152.5 92.0 L 154.2 90.5 L 155.8 89.0 L 157.5 87.5 L 159.1 86.1 L 160.8 84.6 L 162.4 83.2 L 164.0 81.9 L 165.7 80.5 L 167.3 79.2 L 169.0 77.9 L 170.6 76.6 L 172.3 75.4 L 174.0 74.2 L 175.6 73.0 L 177.2 71.9 L 178.9 70.7 L 180.6 69.6 L 182.2 68.6 L 183.9 67.5 L 185.5 66.5 L 187.2 65.6 L 188.8 64.6 L 190.4 63.7 L 192.1 62.8 L 193.8 62.0 L 195.4 61.2 L 197.1 60.4 L 198.7 59.6 L 200.4 58.9 L 202.0 58.2 L 203.7 57.6 L 205.3 56.9 L 207.0 56.3 L 208.6 55.8 L 210.2 55.3 L 211.9 54.8 L 213.5 54.3 L 215.2 53.9 L 216.9 53.5 L 218.5 53.1 L 220.2 52.8 L 221.8 52.5 L 223.4 52.3 L 225.1 52.1 L 226.8 51.9 L 228.4 51.7 L 230.1 51.6 L 231.7 51.5 L 233.4 51.5 L 235.0 51.4 L 236.6 51.5 L 238.3 51.5 L 240.0 51.6 L 241.6 51.7 L 243.2 51.9 L 244.9 52.1 L 246.5 52.3 L 248.2 52.5 L 249.8 52.8 L 251.5 53.1 L 253.2 53.5 L 254.8 53.9 L 256.4 54.3 L 258.1 54.8 L 259.8 55.3 L 261.4 55.8 L 263.0 56.3 L 264.7 56.9 L 266.3 57.6 L 268.0 58.2 L 269.7 58.9 L 271.3 59.6 L 272.9 60.4 L 274.6 61.2 L 276.2 62.0 L 277.9 62.8 L 279.5 63.7 L 281.2 64.6 L 282.9 65.6 L 284.5 66.5 L 286.1 67.5 L 287.8 68.6 L 289.5 69.6 L 291.1 70.7 L 292.8 71.9 L 294.4 73.0 L 296.1 74.2 L 297.7 75.4 L 299.4 76.6 L 301.0 77.9 L 302.6 79.2 L 304.3 80.5 L 306.0 81.9 L 307.6 83.2 L 309.2 84.6 L 310.9 86.1 L 312.6 87.5 L 314.2 89.0 L 315.9 90.5 L 317.5 92.0 L 319.1 93.6 L 320.8 95.1 L 322.5 96.7 L 324.1 98.4 L 325.8 100.0 L 327.4 101.7 L 329.1 103.4 L 330.7 105.1 L 332.4 106.8 L 334.0 108.6 L 335.6 110.3 L 337.3 112.1 L 338.9 113.9 L 340.6 115.8 L 342.2 117.6 L 343.9 119.5 L 345.6 121.3 L 347.2 123.2 L 348.9 125.2 L 350.5 127.1 L 352.1 129.0 L 353.8 131.0 L 355.4 133.0 L 357.1 135.0 L 358.7 137.0 L 360.4 139.0 L 362.1 141.0 L 363.7 143.1 L 365.4 145.1 L 367.0 147.2 L 368.6 149.3 L 370.3 151.3 L 371.9 153.4 L 373.6 155.5 L 375.2 157.7 L 376.9 159.8 L 378.6 161.9 L 380.2 164.0 L 381.9 166.2 L 383.5 168.3 L 385.1 170.5 L 386.8 172.6 L 388.4 174.8 L 390.1 177.0 L 391.8 179.1 L 393.4 181.3 L 395.0 183.5 L 396.7 185.6 L 398.4 187.8 L 400.0 190.0 L 401.7 192.2 L 403.3 194.4 L 405.0 196.5 L 406.6 198.7 L 408.2 200.9 L 409.9 203.0 L 411.5 205.2 L 413.2 207.4 L 414.8 209.5 L 416.5 211.7 L 418.2 213.8 L 419.8 216.0 L 421.5 218.1 L 423.1 220.2 L 424.8 222.3 L 426.4 224.5 L 428.0 226.6 L 429.7 228.7 L 431.3 230.7 L 433.0 232.8 L 434.7 234.9 L 436.3 236.9 L 438.0 239.0 L 439.6 241.0 L 441.3 243.0 L 442.9 245.0 L 444.5 247.0 L 446.2 249.0 L 447.8 251.0 L 449.5 252.9 L 451.1 254.8 L 452.8 256.8 L 454.5 258.7 L 456.1 260.5 L 457.8 262.4 L 459.4 264.2 L 461.0 266.1 L 462.7 267.9 L 464.3 269.7 L 466.0 271.4 L 467.6 273.2 L 469.3 274.9 L 470.9 276.6 L 472.6 278.3 L 474.3 280.0 L 475.9 281.6 L 477.5 283.3 L 479.2 284.9 L 480.8 286.4 L 482.5 288.0 L 484.2 289.5 L 485.8 291.0 L 487.4 292.5 L 489.1 293.9 L 490.8 295.4 L 492.4 296.8 L 494.1 298.1 L 495.7 299.5 L 497.3 300.8 L 499.0 302.1 L 500.6 303.4 L 502.3 304.6 L 504.0 305.8 L 505.6 307.0 L 507.2 308.1 L 508.9 309.3 L 510.6 310.4 L 512.2 311.4 L 513.8 312.5 L 515.5 313.5 L 517.1 314.4 L 518.8 315.4 L 520.5 316.3 L 522.1 317.2 L 523.8 318.0 L 525.4 318.8 L 527.1 319.6 L 528.7 320.4 L 530.3 321.1 L 532.0 321.8 L 533.6 322.4 L 535.3 323.1 L 537.0 323.7 L 538.6 324.2 L 540.2 324.7 L 541.9 325.2 L 543.5 325.7 L 545.2 326.1 L 546.8 326.5 L 548.5 326.9 L 550.1 327.2 L 551.8 327.5 L 553.5 327.7 L 555.1 327.9 L 556.8 328.1 L 558.4 328.3 L 560.0 328.4 L 561.7 328.5 L 563.3 328.5 L 565.0 328.6 L 566.6 328.5 L 568.3 328.5 L 570.0 328.4 L 571.6 328.3 L 573.2 328.1 L 574.9 327.9 L 576.5 327.7 L 578.2 327.5 L 579.8 327.2 L 581.5 326.9 L 583.1 326.5 L 584.8 326.1 L 586.5 325.7 L 588.1 325.2 L 589.8 324.7 L 591.4 324.2 L 593.1 323.7 L 594.7 323.1 L 596.4 322.4 L 598.0 321.8 L 599.6 321.1 L 601.3 320.4 L 603.0 319.6 L 604.6 318.8 L 606.2 318.0 L 607.9 317.2 L 609.6 316.3 L 611.2 315.4 L 612.9 314.4 L 614.5 313.5 L 616.1 312.5 L 617.8 311.4 L 619.5 310.4 L 621.1 309.3 L 622.8 308.1 L 624.4 307.0 L 626.0 305.8 L 627.7 304.6 L 629.3 303.4 L 631.0 302.1 L 632.6 300.8 L 634.3 299.5 L 636.0 298.1 L 637.6 296.8 L 639.2 295.4 L 640.9 293.9 L 642.6 292.5 L 644.2 291.0 L 645.9 289.5 L 647.5 288.0 L 649.1 286.4 L 650.8 284.9 L 652.5 283.3 L 654.1 281.6 L 655.7 280.0 L 657.4 278.3 L 659.0 276.6 L 660.7 274.9 L 662.3 273.2 L 664.0 271.4 L 665.6 269.7 L 667.3 267.9 L 669.0 266.1 L 670.6 264.2 L 672.3 262.4 L 673.9 260.5 L 675.6 258.7 L 677.2 256.8 L 678.9 254.8 L 680.5 252.9 L 682.1 251.0 L 683.8 249.0 L 685.5 247.0 L 687.1 245.0 L 688.7 243.0 L 690.4 241.0 L 692.0 239.0 L 693.7 236.9 L 695.4 234.9 L 697.0 232.8 L 698.6 230.7 L 700.3 228.7 L 702.0 226.6 L 703.6 224.5 L 705.3 222.3 L 706.9 220.2 L 708.6 218.1 L 710.2 216.0 L 711.9 213.8 L 713.5 211.7 L 715.1 209.5 L 716.8 207.4 L 718.5 205.2 L 720.1 203.0 L 721.7 200.9 L 723.4 198.7 L 725.1 196.5 L 726.7 194.4 L 728.3 192.2 L 730.0 190.0" fill="none" stroke="#3d5a80" stroke-width="1.8" stroke-dasharray="6 4"/>
<path d="M 70.0 190.0 L 71.7 188.9 L 73.3 187.8 L 75.0 186.7 L 76.6 185.7 L 78.2 184.6 L 79.9 183.6 L 81.5 182.5 L 83.2 181.5 L 84.8 180.5 L 86.5 179.5 L 88.2 178.6 L 89.8 177.6 L 91.5 176.7 L 93.1 175.8 L 94.8 175.0 L 96.4 174.2 L 98.1 173.4 L 99.7 172.7 L 101.3 172.0 L 103.0 171.3 L 104.7 170.7 L 106.3 170.1 L 107.9 169.6 L 109.6 169.1 L 111.2 168.7 L 112.9 168.3 L 114.6 167.9 L 116.2 167.6 L 117.9 167.4 L 119.5 167.2 L 121.1 167.0 L 122.8 167.0 L 124.5 166.9 L 126.1 166.9 L 127.8 167.0 L 129.4 167.1 L 131.1 167.2 L 132.7 167.5 L 134.3 167.7 L 136.0 168.0 L 137.6 168.4 L 139.3 168.8 L 140.9 169.3 L 142.6 169.8 L 144.2 170.3 L 145.9 170.9 L 147.6 171.5 L 149.2 172.2 L 150.8 172.9 L 152.5 173.7 L 154.2 174.5 L 155.8 175.3 L 157.5 176.1 L 159.1 177.0 L 160.8 177.9 L 162.4 178.9 L 164.0 179.8 L 165.7 180.8 L 167.3 181.8 L 169.0 182.9 L 170.6 183.9 L 172.3 185.0 L 174.0 186.0 L 175.6 187.1 L 177.2 188.2 L 178.9 189.3 L 180.6 190.4 L 182.2 191.5 L 183.9 192.5 L 185.5 193.6 L 187.2 194.7 L 188.8 195.7 L 190.4 196.8 L 192.1 197.8 L 193.8 198.8 L 195.4 199.8 L 197.1 200.8 L 198.7 201.8 L 200.4 202.7 L 202.0 203.6 L 203.7 204.4 L 205.3 205.3 L 207.0 206.1 L 208.6 206.8 L 210.2 207.6 L 211.9 208.2 L 213.5 208.9 L 215.2 209.5 L 216.9 210.1 L 218.5 210.6 L 220.2 211.0 L 221.8 211.5 L 223.4 211.8 L 225.1 212.2 L 226.8 212.5 L 228.4 212.7 L 230.1 212.9 L 231.7 213.0 L 233.4 213.1 L 235.0 213.1 L 236.6 213.1 L 238.3 213.0 L 240.0 212.9 L 241.6 212.7 L 243.2 212.5 L 244.9 212.2 L 246.5 211.8 L 248.2 211.5 L 249.8 211.0 L 251.5 210.6 L 253.2 210.1 L 254.8 209.5 L 256.4 208.9 L 258.1 208.2 L 259.8 207.6 L 261.4 206.8 L 263.0 206.1 L 264.7 205.3 L 266.3 204.4 L 268.0 203.6 L 269.7 202.7 L 271.3 201.8 L 272.9 200.8 L 274.6 199.8 L 276.2 198.8 L 277.9 197.8 L 279.5 196.8 L 281.2 195.7 L 282.9 194.7 L 284.5 193.6 L 286.1 192.5 L 287.8 191.5 L 289.5 190.4 L 291.1 189.3 L 292.8 188.2 L 294.4 187.1 L 296.1 186.0 L 297.7 185.0 L 299.4 183.9 L 301.0 182.9 L 302.6 181.8 L 304.3 180.8 L 306.0 179.8 L 307.6 178.9 L 309.2 177.9 L 310.9 177.0 L 312.6 176.1 L 314.2 175.3 L 315.9 174.5 L 317.5 173.7 L 319.1 172.9 L 320.8 172.2 L 322.5 171.5 L 324.1 170.9 L 325.8 170.3 L 327.4 169.8 L 329.1 169.3 L 330.7 168.8 L 332.4 168.4 L 334.0 168.0 L 335.6 167.7 L 337.3 167.5 L 338.9 167.2 L 340.6 167.1 L 342.2 167.0 L 343.9 166.9 L 345.6 166.9 L 347.2 167.0 L 348.9 167.0 L 350.5 167.2 L 352.1 167.4 L 353.8 167.6 L 355.4 167.9 L 357.1 168.3 L 358.7 168.7 L 360.4 169.1 L 362.1 169.6 L 363.7 170.1 L 365.4 170.7 L 367.0 171.3 L 368.6 172.0 L 370.3 172.7 L 371.9 173.4 L 373.6 174.2 L 375.2 175.0 L 376.9 175.8 L 378.6 176.7 L 380.2 177.6 L 381.9 178.6 L 383.5 179.5 L 385.1 180.5 L 386.8 181.5 L 388.4 182.5 L 390.1 183.6 L 391.8 184.6 L 393.4 185.7 L 395.0 186.7 L 396.7 187.8 L 398.4 188.9 L 400.0 190.0 L 401.7 191.1 L 403.3 192.2 L 405.0 193.3 L 406.6 194.3 L 408.2 195.4 L 409.9 196.4 L 411.5 197.5 L 413.2 198.5 L 414.8 199.5 L 416.5 200.5 L 418.2 201.4 L 419.8 202.4 L 421.5 203.3 L 423.1 204.2 L 424.8 205.0 L 426.4 205.8 L 428.0 206.6 L 429.7 207.3 L 431.3 208.0 L 433.0 208.7 L 434.7 209.3 L 436.3 209.9 L 438.0 210.4 L 439.6 210.9 L 441.3 211.3 L 442.9 211.7 L 444.5 212.1 L 446.2 212.4 L 447.8 212.6 L 449.5 212.8 L 451.1 213.0 L 452.8 213.0 L 454.5 213.1 L 456.1 213.1 L 457.8 213.0 L 459.4 212.9 L 461.0 212.8 L 462.7 212.5 L 464.3 212.3 L 466.0 212.0 L 467.6 211.6 L 469.3 211.2 L 470.9 210.7 L 472.6 210.2 L 474.3 209.7 L 475.9 209.1 L 477.5 208.5 L 479.2 207.8 L 480.8 207.1 L 482.5 206.3 L 484.2 205.5 L 485.8 204.7 L 487.4 203.9 L 489.1 203.0 L 490.8 202.1 L 492.4 201.1 L 494.1 200.2 L 495.7 199.2 L 497.3 198.2 L 499.0 197.1 L 500.6 196.1 L 502.3 195.0 L 504.0 194.0 L 505.6 192.9 L 507.2 191.8 L 508.9 190.7 L 510.6 189.6 L 512.2 188.5 L 513.8 187.5 L 515.5 186.4 L 517.1 185.3 L 518.8 184.3 L 520.5 183.2 L 522.1 182.2 L 523.8 181.2 L 525.4 180.2 L 527.1 179.2 L 528.7 178.2 L 530.3 177.3 L 532.0 176.4 L 533.6 175.6 L 535.3 174.7 L 537.0 173.9 L 538.6 173.2 L 540.2 172.4 L 541.9 171.8 L 543.5 171.1 L 545.2 170.5 L 546.8 169.9 L 548.5 169.4 L 550.1 169.0 L 551.8 168.5 L 553.5 168.2 L 555.1 167.8 L 556.8 167.5 L 558.4 167.3 L 560.0 167.1 L 561.7 167.0 L 563.3 166.9 L 565.0 166.9 L 566.6 166.9 L 568.3 167.0 L 570.0 167.1 L 571.6 167.3 L 573.2 167.5 L 574.9 167.8 L 576.5 168.2 L 578.2 168.5 L 579.8 169.0 L 581.5 169.4 L 583.1 169.9 L 584.8 170.5 L 586.5 171.1 L 588.1 171.8 L 589.8 172.4 L 591.4 173.2 L 593.1 173.9 L 594.7 174.7 L 596.4 175.6 L 598.0 176.4 L 599.6 177.3 L 601.3 178.2 L 603.0 179.2 L 604.6 180.2 L 606.2 181.2 L 607.9 182.2 L 609.6 183.2 L 611.2 184.3 L 612.9 185.3 L 614.5 186.4 L 616.1 187.5 L 617.8 188.5 L 619.5 189.6 L 621.1 190.7 L 622.8 191.8 L 624.4 192.9 L 626.0 194.0 L 627.7 195.0 L 629.3 196.1 L 631.0 197.1 L 632.6 198.2 L 634.3 199.2 L 636.0 200.2 L 637.6 201.1 L 639.2 202.1 L 640.9 203.0 L 642.6 203.9 L 644.2 204.7 L 645.9 205.5 L 647.5 206.3 L 649.1 207.1 L 650.8 207.8 L 652.5 208.5 L 654.1 209.1 L 655.7 209.7 L 657.4 210.2 L 659.0 210.7 L 660.7 211.2 L 662.3 211.6 L 664.0 212.0 L 665.6 212.3 L 667.3 212.5 L 669.0 212.8 L 670.6 212.9 L 672.3 213.0 L 673.9 213.1 L 675.6 213.1 L 677.2 213.0 L 678.9 213.0 L 680.5 212.8 L 682.1 212.6 L 683.8 212.4 L 685.5 212.1 L 687.1 211.7 L 688.7 211.3 L 690.4 210.9 L 692.0 210.4 L 693.7 209.9 L 695.4 209.3 L 697.0 208.7 L 698.6 208.0 L 700.3 207.3 L 702.0 206.6 L 703.6 205.8 L 705.3 205.0 L 706.9 204.2 L 708.6 203.3 L 710.2 202.4 L 711.9 201.4 L 713.5 200.5 L 715.1 199.5 L 716.8 198.5 L 718.5 197.5 L 720.1 196.4 L 721.7 195.4 L 723.4 194.3 L 725.1 193.3 L 726.7 192.2 L 728.3 191.1 L 730.0 190.0" fill="none" stroke="#6b665d" stroke-width="1.3"/>
<path d="M 70.0 190.0 L 71.7 186.7 L 73.3 183.5 L 75.0 180.2 L 76.6 177.0 L 78.2 173.7 L 79.9 170.5 L 81.5 167.3 L 83.2 164.1 L 84.8 161.0 L 86.5 157.8 L 88.2 154.7 L 89.8 151.7 L 91.5 148.6 L 93.1 145.6 L 94.8 142.7 L 96.4 139.7 L 98.1 136.9 L 99.7 134.0 L 101.3 131.2 L 103.0 128.5 L 104.7 125.8 L 106.3 123.2 L 107.9 120.6 L 109.6 118.1 L 111.2 115.6 L 112.9 113.2 L 114.6 110.9 L 116.2 108.6 L 117.9 106.4 L 119.5 104.3 L 121.1 102.2 L 122.8 100.2 L 124.5 98.3 L 126.1 96.4 L 127.8 94.6 L 129.4 92.8 L 131.1 91.2 L 132.7 89.6 L 134.3 88.0 L 136.0 86.6 L 137.6 85.2 L 139.3 83.9 L 140.9 82.6 L 142.6 81.4 L 144.2 80.3 L 145.9 79.3 L 147.6 78.3 L 149.2 77.4 L 150.8 76.5 L 152.5 75.7 L 154.2 75.0 L 155.8 74.3 L 157.5 73.6 L 159.1 73.1 L 160.8 72.6 L 162.4 72.1 L 164.0 71.7 L 165.7 71.3 L 167.3 71.0 L 169.0 70.8 L 170.6 70.5 L 172.3 70.4 L 174.0 70.2 L 175.6 70.1 L 177.2 70.0 L 178.9 70.0 L 180.6 70.0 L 182.2 70.0 L 183.9 70.1 L 185.5 70.2 L 187.2 70.2 L 188.8 70.4 L 190.4 70.5 L 192.1 70.7 L 193.8 70.8 L 195.4 71.0 L 197.1 71.2 L 198.7 71.4 L 200.4 71.6 L 202.0 71.8 L 203.7 72.0 L 205.3 72.2 L 207.0 72.4 L 208.6 72.6 L 210.2 72.8 L 211.9 73.0 L 213.5 73.2 L 215.2 73.4 L 216.9 73.6 L 218.5 73.7 L 220.2 73.9 L 221.8 74.0 L 223.4 74.1 L 225.1 74.2 L 226.8 74.3 L 228.4 74.4 L 230.1 74.5 L 231.7 74.5 L 233.4 74.5 L 235.0 74.5 L 236.6 74.5 L 238.3 74.5 L 240.0 74.5 L 241.6 74.4 L 243.2 74.3 L 244.9 74.2 L 246.5 74.1 L 248.2 74.0 L 249.8 73.9 L 251.5 73.7 L 253.2 73.6 L 254.8 73.4 L 256.4 73.2 L 258.1 73.0 L 259.8 72.8 L 261.4 72.6 L 263.0 72.4 L 264.7 72.2 L 266.3 72.0 L 268.0 71.8 L 269.7 71.6 L 271.3 71.4 L 272.9 71.2 L 274.6 71.0 L 276.2 70.8 L 277.9 70.7 L 279.5 70.5 L 281.2 70.4 L 282.9 70.2 L 284.5 70.2 L 286.1 70.1 L 287.8 70.0 L 289.5 70.0 L 291.1 70.0 L 292.8 70.0 L 294.4 70.1 L 296.1 70.2 L 297.7 70.4 L 299.4 70.5 L 301.0 70.8 L 302.6 71.0 L 304.3 71.3 L 306.0 71.7 L 307.6 72.1 L 309.2 72.6 L 310.9 73.1 L 312.6 73.6 L 314.2 74.3 L 315.9 75.0 L 317.5 75.7 L 319.1 76.5 L 320.8 77.4 L 322.5 78.3 L 324.1 79.3 L 325.8 80.3 L 327.4 81.4 L 329.1 82.6 L 330.7 83.9 L 332.4 85.2 L 334.0 86.6 L 335.6 88.0 L 337.3 89.6 L 338.9 91.2 L 340.6 92.8 L 342.2 94.6 L 343.9 96.4 L 345.6 98.3 L 347.2 100.2 L 348.9 102.2 L 350.5 104.3 L 352.1 106.4 L 353.8 108.6 L 355.4 110.9 L 357.1 113.2 L 358.7 115.6 L 360.4 118.1 L 362.1 120.6 L 363.7 123.2 L 365.4 125.8 L 367.0 128.5 L 368.6 131.2 L 370.3 134.0 L 371.9 136.9 L 373.6 139.7 L 375.2 142.7 L 376.9 145.6 L 378.6 148.6 L 380.2 151.7 L 381.9 154.7 L 383.5 157.8 L 385.1 161.0 L 386.8 164.1 L 388.4 167.3 L 390.1 170.5 L 391.8 173.7 L 393.4 177.0 L 395.0 180.2 L 396.7 183.5 L 398.4 186.7 L 400.0 190.0 L 401.7 193.3 L 403.3 196.5 L 405.0 199.8 L 406.6 203.0 L 408.2 206.3 L 409.9 209.5 L 411.5 212.7 L 413.2 215.9 L 414.8 219.0 L 416.5 222.2 L 418.2 225.3 L 419.8 228.3 L 421.5 231.4 L 423.1 234.4 L 424.8 237.3 L 426.4 240.3 L 428.0 243.1 L 429.7 246.0 L 431.3 248.8 L 433.0 251.5 L 434.7 254.2 L 436.3 256.8 L 438.0 259.4 L 439.6 261.9 L 441.3 264.4 L 442.9 266.8 L 444.5 269.1 L 446.2 271.4 L 447.8 273.6 L 449.5 275.7 L 451.1 277.8 L 452.8 279.8 L 454.5 281.7 L 456.1 283.6 L 457.8 285.4 L 459.4 287.2 L 461.0 288.8 L 462.7 290.4 L 464.3 292.0 L 466.0 293.4 L 467.6 294.8 L 469.3 296.1 L 470.9 297.4 L 472.6 298.6 L 474.3 299.7 L 475.9 300.7 L 477.5 301.7 L 479.2 302.6 L 480.8 303.5 L 482.5 304.3 L 484.2 305.0 L 485.8 305.7 L 487.4 306.4 L 489.1 306.9 L 490.8 307.4 L 492.4 307.9 L 494.1 308.3 L 495.7 308.7 L 497.3 309.0 L 499.0 309.2 L 500.6 309.5 L 502.3 309.6 L 504.0 309.8 L 505.6 309.9 L 507.2 310.0 L 508.9 310.0 L 510.6 310.0 L 512.2 310.0 L 513.8 309.9 L 515.5 309.8 L 517.1 309.8 L 518.8 309.6 L 520.5 309.5 L 522.1 309.3 L 523.8 309.2 L 525.4 309.0 L 527.1 308.8 L 528.7 308.6 L 530.3 308.4 L 532.0 308.2 L 533.6 308.0 L 535.3 307.8 L 537.0 307.6 L 538.6 307.4 L 540.2 307.2 L 541.9 307.0 L 543.5 306.8 L 545.2 306.6 L 546.8 306.4 L 548.5 306.3 L 550.1 306.1 L 551.8 306.0 L 553.5 305.9 L 555.1 305.8 L 556.8 305.7 L 558.4 305.6 L 560.0 305.5 L 561.7 305.5 L 563.3 305.5 L 565.0 305.5 L 566.6 305.5 L 568.3 305.5 L 570.0 305.5 L 571.6 305.6 L 573.2 305.7 L 574.9 305.8 L 576.5 305.9 L 578.2 306.0 L 579.8 306.1 L 581.5 306.3 L 583.1 306.4 L 584.8 306.6 L 586.5 306.8 L 588.1 307.0 L 589.8 307.2 L 591.4 307.4 L 593.1 307.6 L 594.7 307.8 L 596.4 308.0 L 598.0 308.2 L 599.6 308.4 L 601.3 308.6 L 603.0 308.8 L 604.6 309.0 L 606.2 309.2 L 607.9 309.3 L 609.6 309.5 L 611.2 309.6 L 612.9 309.8 L 614.5 309.8 L 616.1 309.9 L 617.8 310.0 L 619.5 310.0 L 621.1 310.0 L 622.8 310.0 L 624.4 309.9 L 626.0 309.8 L 627.7 309.6 L 629.3 309.5 L 631.0 309.2 L 632.6 309.0 L 634.3 308.7 L 636.0 308.3 L 637.6 307.9 L 639.2 307.4 L 640.9 306.9 L 642.6 306.4 L 644.2 305.7 L 645.9 305.0 L 647.5 304.3 L 649.1 303.5 L 650.8 302.6 L 652.5 301.7 L 654.1 300.7 L 655.7 299.7 L 657.4 298.6 L 659.0 297.4 L 660.7 296.1 L 662.3 294.8 L 664.0 293.4 L 665.6 292.0 L 667.3 290.4 L 669.0 288.8 L 670.6 287.2 L 672.3 285.4 L 673.9 283.6 L 675.6 281.7 L 677.2 279.8 L 678.9 277.8 L 680.5 275.7 L 682.1 273.6 L 683.8 271.4 L 685.5 269.1 L 687.1 266.8 L 688.7 264.4 L 690.4 261.9 L 692.0 259.4 L 693.7 256.8 L 695.4 254.2 L 697.0 251.5 L 698.6 248.8 L 700.3 246.0 L 702.0 243.1 L 703.6 240.3 L 705.3 237.3 L 706.9 234.4 L 708.6 231.4 L 710.2 228.3 L 711.9 225.3 L 713.5 222.2 L 715.1 219.0 L 716.8 215.9 L 718.5 212.7 L 720.1 209.5 L 721.7 206.3 L 723.4 203.0 L 725.1 199.8 L 726.7 196.5 L 728.3 193.3 L 730.0 190.0" fill="none" stroke="#b4441c" stroke-width="2.6"/>
<circle cx="180.0" cy="70.0" r="4" fill="#b4441c"/>
<circle cx="290.0" cy="70.0" r="4" fill="#b4441c"/>
<g font-size="12.5" fill="#1d1b18">
<line x1="80" y1="352" x2="120" y2="352" stroke="#3d5a80" stroke-width="1.8" stroke-dasharray="6 4"/><text x="126" y="356">Fundamental con amplitud 2/√3 = 1,155 (se sale del límite)</text>
<line x1="80" y1="372" x2="120" y2="372" stroke="#6b665d" stroke-width="1.3"/><text x="126" y="376">Tercer armónico: 1/6 de la fundamental</text>
<line x1="80" y1="392" x2="120" y2="392" stroke="#b4441c" stroke-width="2.6"/><text x="126" y="396">Suma: llega justo a 1 (marcado en θ = 60° y 120°)</text>
</g></svg>